<?xml version="1.0" encoding="UTF-8"?>
<svg id="Layer_1" xmlns="http://www.w3.org/2000/svg" version="1.1" viewBox="0 0 823 230">
  <!-- Generator: Adobe Illustrator 29.0.1, SVG Export Plug-In . SVG Version: 2.1.0 Build 192)  -->
  <defs>
    <style>
      .st0 {
        fill: #313e48;
      }

      .st1 {
        fill: #5ca1f3;
      }
    </style>
  </defs>
  <polygon class="st1" points="250.9 175.6 250.9 226.9 289 226.9 289 218.5 260.4 218.5 260.4 204.1 285.1 204.1 285.1 196.4 260.4 196.4 260.4 183.7 288.4 183.7 288.4 175.6 250.9 175.6"/>
  <polygon class="st1" points="192.2 175.6 192.2 183.8 208.1 183.8 208.1 226.9 217.7 226.9 217.7 183.8 233.8 183.8 233.8 175.6 192.2 175.6"/>
  <path class="st0" d="M671,14.3v121.9c0,1.3,1,2.3,2.3,2.3h13.7c7.3,0,13.3-5.9,13.3-13.2v-34.3h83.6v34.3c0,7.3,5.9,13.2,13.3,13.2h13.6c1.3,0,2.3-1,2.3-2.3V14.2c0-4.9-4-8.8-8.8-8.8h-124.4c-4.9,0-8.9,4-8.9,8.9M700.2,34.6h83.6v27.2h-83.6v-27.2Z"/>
  <path class="st0" d="M624.2,18.7v78.6l-79.6-87.1c-2.5-3-6.3-4.8-10.2-4.8h-14.1c-4.9,0-8.8,4-8.8,8.8v122c0,1.3,1,2.3,2.3,2.3h13.6c7.3,0,13.3-5.9,13.3-13.3V46.7l79.7,87.1c2.5,3,6.3,4.8,10.2,4.8h20.4c1.3,0,2.3-1,2.3-2.3V7.8c0-1.3-1-2.3-2.3-2.3h-13.6c-7.3-.1-13.2,5.9-13.2,13.2"/>
  <path class="st0" d="M354.1,138.6h13.6c7.3,0,13.2-5.9,13.2-13.2v-34.4h83.6v34.3c0,7.3,5.9,13.2,13.2,13.2h13.6c1.3,0,2.3-1,2.3-2.3V14.2c0-4.9-4-8.8-8.8-8.8h-124.2c-4.9,0-8.8,3.9-8.8,8.8v122c0,1.3,1,2.4,2.3,2.4M381,34.6h83.6v27.2h-83.6v-27.2Z"/>
  <path class="st0" d="M263.1,47.2l-37.9-37.9c-2.5-2.5-5.9-3.9-9.4-3.9h-14.8c-4.9,0-8.8,4-8.8,8.8v122c0,1.3,1,2.3,2.3,2.3h13.6c7.3,0,13.3-5.9,13.3-13.3V46.7l35.5,35.5c3.5,3.4,9,3.4,12.5,0l35.6-35.6v78.6c0,7.3,5.9,13.3,13.3,13.3h13.6c1.3,0,2.3-1,2.3-2.3V14.3c0-4.9-4-8.8-8.8-8.8h-14.8c-3.5,0-6.9,1.4-9.4,3.9l-38.1,37.8Z"/>
  <path class="st1" d="M67.7,75c1.9.7,4-.2,4.8-2.1l10.7-24.9c1.1-2.5-.8-5.2-3.5-5.2h-11.2c-2.8,0-4.6-2.9-3.4-5.4l13.2-26.5c2.2-4.1-.9-5.7-3.9-5.4-17.1,2.9-30.1,17.8-30.1,35.7,0,15.4,9.8,28.6,23.4,33.8"/>
  <path class="st1" d="M86.6,29.6h14.5c3.1,0,4.9,3.5,3.1,6l-29.8,41.2c2,.3,4,.6,6.1.6,20,0,36.2-16.2,36.2-36.2s-11.2-30.6-26.5-34.8c-2.1-.6-4.3.8-4.7,3l-2.6,15.9c-.4,2.2,1.4,4.3,3.7,4.3"/>
  <path class="st1" d="M21.2,137.4c1.4,0,2.8-.2,4.1-.5l118.7-32.2c8.7-2.3,14-11.2,11.7-20s-11.2-14-20-11.7L17.1,105.2c-8.7,2.3-14,11.2-11.7,20,1.9,7.3,8.5,12.2,15.8,12.2"/>
  <path class="st1" d="M135.8,117.7l-118.7,32.1c-8.7,2.3-14,11.2-11.7,20,1.9,7.4,8.6,12.2,15.8,12.2s2.8-.2,4.1-.5l118.7-32.2c8.7-2.3,14-11.2,11.7-20-2.3-8.7-11.2-13.9-19.9-11.6"/>
  <polygon class="st1" points="69.4 178.6 69.4 187 101.6 187 101.6 165.1 69.4 178.6"/>
  <path class="st1" d="M139.7,192.4H21.4c-9.1,0-16.4,7.4-16.4,16.4s7.4,16.4,16.4,16.4h118.3c9.1,0,16.4-7.4,16.4-16.4s-7.3-16.4-16.4-16.4"/>
  <polygon class="st1" points="368.7 174.6 378.2 174.6 378.2 195.2 400.9 195.2 400.9 174.6 410.5 174.6 410.5 225.9 400.9 225.9 400.9 203.1 378.2 203.1 378.2 225.9 368.7 225.9 368.7 174.6"/>
  <path class="st1" d="M329.1,227c-3.7,0-7.1-.7-10.1-2s-5.6-3.2-7.8-5.5c-2.2-2.4-3.8-5.2-5-8.4s-1.8-6.8-1.8-10.6.6-7.4,1.7-10.6c1.1-3.3,2.8-6.1,4.9-8.5s4.7-4.3,7.8-5.6c3-1.4,6.5-2,10.3-2s5.6.4,8,1.1c2.4.7,4.5,1.8,6.2,3.1,2.1,1.6,3.7,3.5,4.9,5.8,1.2,2.2,2,4.7,2.3,7.4h-9.5c-.5-2.8-1.7-5-3.8-6.8-2.1-1.7-4.8-2.6-8.2-2.6s-4.6.5-6.4,1.4c-1.9.9-3.4,2.2-4.7,3.9-1.3,1.7-2.2,3.6-2.9,5.9-.6,2.3-1,4.7-1,7.4s.4,5.2,1.1,7.5,1.7,4.2,3,5.9c1.3,1.6,2.9,2.9,4.7,3.8s3.9,1.4,6.2,1.4,3.6-.3,5.1-.9c1.5-.6,2.7-1.4,3.8-2.4,1-1,1.8-2.2,2.5-3.6.6-1.4,1-2.8,1.1-4.4h9.6c-.1,2.6-.7,5.1-1.8,7.5-1.1,2.4-2.6,4.5-4.4,6.2-3.7,3.7-8.9,5.6-15.8,5.6"/>
</svg>